<svg width="101" height="80" viewBox="0 0 101 80" fill="none" xmlns="http://www.w3.org/2000/svg">
<g id="svg">
<path id="Vector" d="M74.5056 12.5L81.8389 20H100.75V60H90.75C89.3944 60 88.2241 59.5037 87.2389 58.5111C86.2463 57.5259 85.75 56.3556 85.75 55H76.6833C76.3722 56.3556 75.8019 57.5519 74.9722 58.5889L70.9056 63.5889C69.6537 65.1519 68.1167 66.1704 66.2944 66.6444C64.4722 67.1111 62.6759 66.9815 60.9056 66.2556C58.9278 68.7519 56.3759 70 53.25 70C50.9611 70 48.8241 69.1667 46.8389 67.5C44.4463 69.2704 41.713 70.1037 38.6389 70C35.5648 69.8963 32.8315 68.8556 30.4389 66.8778L17.1611 55H15.75C15.75 56.3556 15.2537 57.5259 14.2611 58.5111C13.2759 59.5037 12.1056 60 10.75 60H0.75V20H19.1833L26.6833 12.5C28.35 10.8333 30.3833 10 32.7833 10H68.25C70.6426 10 72.7278 10.8333 74.5056 12.5ZM6.45 54.2222C6.92407 54.7407 7.52407 55 8.25 55C8.97593 55 9.57593 54.7407 10.05 54.2222C10.5167 53.6963 10.75 53.0963 10.75 52.4222C10.75 51.7481 10.5167 51.1741 10.05 50.7C9.57593 50.2333 8.97593 50 8.25 50C7.52407 50 6.92407 50.2333 6.45 50.7C5.98333 51.1741 5.75 51.7481 5.75 52.4222C5.75 53.0963 5.98333 53.6963 6.45 54.2222ZM65.1278 58.9111L69.1833 53.9111C69.7093 53.1778 69.6574 52.5519 69.0278 52.0333L52.1611 38.4333L50.75 39.5333C48.8759 41.3037 46.7648 42.2667 44.4167 42.4222C42.0759 42.5778 40.15 42.2667 38.6389 41.4889C37.1278 40.7037 35.9056 39.8444 34.9722 38.9111C32.8833 36.6148 31.8944 33.9296 32.0056 30.8556C32.1093 27.7889 33.3056 25.1593 35.5944 22.9667L41.6833 17.5H32.7833C32.6796 17.5 32.55 17.5519 32.3944 17.6556C32.2389 17.7593 32.1093 17.8111 32.0056 17.8111L22.3167 27.5H15.75V47.5H20.1278L35.2833 61.2556C36.5352 62.2926 38.0204 62.7074 39.7389 62.5C41.4574 62.2926 42.8352 61.5111 43.8722 60.1556L46.3722 57.1889L52.1611 62.1889C53.0944 62.9148 54.0315 62.7593 54.9722 61.7222L59.6611 56.0889L63.4056 59.0667C64.0278 59.5852 64.6019 59.5333 65.1278 58.9111ZM74.9722 47.5H85.75V27.5H78.7167L69.1833 17.8111C68.8722 17.6037 68.5611 17.5 68.25 17.5H55.1278C53.5648 17.5 52.1574 18.0741 50.9056 19.2222L40.75 28.5889C39.9204 29.2185 39.5056 30.0519 39.5056 31.0889C39.5056 32.1333 39.8685 33.0741 40.5944 33.9111C41.2167 34.637 42.0759 34.9741 43.1722 34.9222C44.2685 34.8704 45.1796 34.5333 45.9056 33.9111L54.5056 25.9333C55.75 24.7926 56.9463 24.8444 58.0944 26.0889L59.8167 27.9667C60.9574 29.2185 60.9056 30.3667 59.6611 31.4111L57.6278 33.2778L73.7167 46.2556C74.1315 46.6704 74.55 47.0852 74.9722 47.5ZM91.45 54.2222C91.9241 54.7407 92.5241 55 93.25 55C93.9759 55 94.5759 54.7407 95.05 54.2222C95.5167 53.6963 95.75 53.0963 95.75 52.4222C95.75 51.7481 95.5167 51.1741 95.05 50.7C94.5759 50.2333 93.9759 50 93.25 50C92.5241 50 91.9241 50.2333 91.45 50.7C90.9833 51.1741 90.75 51.7481 90.75 52.4222C90.75 53.0963 90.9833 53.6963 91.45 54.2222Z" fill="black"/>
</g>
</svg>
